<svg width="145" height="145" viewBox="0 0 145 145" xmlns="http://www.w3.org/2000/svg">
<path d="M72.5 36.25C68.019 36.25 63.6386 37.5788 59.9128 40.0683C56.187 42.5578 53.2831 46.0962 51.5683 50.2361C49.8535 54.376 49.4049 58.9314 50.2791 63.3263C51.1533 67.7211 53.3111 71.7581 56.4796 74.9266C59.6481 78.0952 63.6851 80.253 68.08 81.1272C72.4749 82.0014 77.0303 81.5527 81.1702 79.8379C85.3101 78.1231 88.8485 75.2192 91.338 71.4934C93.8275 67.7676 95.1562 63.3872 95.1562 58.9063C95.1562 52.8974 92.7692 47.1347 88.5204 42.8859C84.2715 38.637 78.5088 36.25 72.5 36.25Z"/>
<path d="M72.5 9.0625C59.9532 9.0625 47.6883 12.783 37.256 19.7536C26.8238 26.7242 18.6928 36.6318 13.8914 48.2235C9.08996 59.8152 7.83368 72.5704 10.2814 84.876C12.7292 97.1817 18.771 108.485 27.6429 117.357C36.5148 126.229 47.8183 132.271 60.124 134.719C72.4296 137.166 85.1848 135.91 96.7765 131.109C108.368 126.307 118.276 118.176 125.246 107.744C132.217 97.3117 135.937 85.0468 135.937 72.5C135.918 55.6812 129.229 39.5568 117.336 27.6641C105.443 15.7714 89.3188 9.08169 72.5 9.0625ZM108.714 112.946C108.623 107.002 106.202 101.332 101.971 97.1572C97.7398 92.9821 92.0379 90.6362 86.0937 90.625H58.9062C52.9621 90.6362 47.2602 92.9821 43.0292 97.1572C38.7981 101.332 36.3766 107.002 36.2862 112.946C28.0691 105.609 22.2744 95.9486 19.6694 85.2449C17.0644 74.5411 17.772 63.2986 21.6985 53.0059C25.625 42.7133 32.5852 33.856 41.6575 27.6069C50.7297 21.3579 61.4861 18.0118 72.5023 18.0118C83.5184 18.0118 94.2748 21.3579 103.347 27.6069C112.419 33.856 119.38 42.7133 123.306 53.0059C127.233 63.2986 127.94 74.5411 125.335 85.2449C122.73 95.9486 116.935 105.609 108.718 112.946H108.714Z"/>
</svg>
