<svg width="77" height="86" viewBox="0 0 77 86" fill="none" xmlns="http://www.w3.org/2000/svg">
<g clip-path="url(#clip0_18_96)">
<path d="M76.9912 25.5826C76.9906 24.1364 76.6794 22.8587 76.0502 21.7622C75.4322 20.6836 74.5062 19.78 73.2647 19.0651C63.0151 13.1914 52.7555 7.33565 42.5095 1.456C39.7471 -0.128727 37.0687 -0.0710952 34.3268 1.53663C30.2472 3.9279 9.82194 15.5582 3.73549 19.0618C1.22909 20.5041 0.0092719 22.7111 0.00867041 25.5799C0.00476074 37.3924 0.00867041 49.2042 0.00476074 61.017C0.00536223 62.4312 0.303399 63.6842 0.904887 64.7645C1.52322 65.8754 2.46184 66.804 3.73218 67.535C9.81893 71.0387 30.2469 82.6681 34.3256 85.0599C37.0687 86.6685 39.7471 86.7259 42.5104 85.1406C52.7567 79.2606 63.0169 73.4051 73.268 67.5315C74.5384 66.8008 75.477 65.8715 76.0953 64.7616C76.6959 63.6812 76.9945 62.4282 76.9951 61.0137C76.9951 61.0137 76.9951 37.3953 76.9912 25.5826Z" fill="#A9B9CB"/>
<path d="M42.44 1.53308C39.6822 -0.0477645 37.0083 0.00986758 34.2709 1.61341C30.1979 3.99842 9.806 15.5986 3.72947 19.0932C1.22698 20.5316 0.0092719 22.733 0.00867041 25.5943C0.00476074 37.376 0.00867041 49.1574 0.00476074 60.9394C0.00536223 62.35 0.302798 63.5997 0.903383 64.6771C1.52081 65.7852 2.45793 66.7115 3.72616 67.4404C5.74555 68.5997 7.76645 69.7563 9.78885 70.9103L66.0556 15.0425C58.1827 10.5413 50.3077 6.0436 42.44 1.53308Z" fill="#7F8B99"/>
<path d="M46.4565 37.914L58.4378 37.998C58.4378 33.0413 53.3847 20.9028 38.8976 20.9028C29.6675 20.9028 17.2588 26.7293 17.2588 43.4808C17.2588 60.2319 29.423 65.6944 38.8976 65.6944C54.2406 65.6944 57.9076 55.1529 57.9076 49.1956L46.4772 48.5467C46.4772 48.5467 46.7831 55.4371 38.8365 55.4371C31.5014 55.4371 30.2774 46.5152 30.2774 43.4808C30.2774 38.8681 31.9294 31.4635 38.8365 31.4635C45.744 31.4635 46.4565 37.914 46.4565 37.914Z" fill="white"/>
</g>
<defs>
<clipPath id="clip0_18_96">
<rect width="77" height="86" fill="white"/>
</clipPath>
</defs>
</svg>
