<svg width="145" height="145" viewBox="0 0 145 145" fill="none" xmlns="http://www.w3.org/2000/svg">
<path d="M135.938 49.8438C135.938 55.1992 134.883 60.5023 132.833 65.4501C130.784 70.3979 127.78 74.8936 123.993 78.6804C120.206 82.4673 115.71 85.4713 110.763 87.5207C105.815 89.5702 100.512 90.625 95.1562 90.625C89.8008 90.625 84.4977 89.5702 79.5499 87.5207C74.6021 85.4713 70.1064 82.4673 66.3195 78.6804C62.5327 74.8936 59.5287 70.3979 57.4793 65.4501C55.4298 60.5023 54.375 55.1992 54.375 49.8438C54.375 39.0279 58.6716 28.655 66.3195 21.0071C73.9675 13.3591 84.3404 9.0625 95.1562 9.0625C105.972 9.0625 116.345 13.3591 123.993 21.0071C131.641 28.655 135.938 39.0279 135.938 49.8438ZM98.3644 28.5197L98.3372 28.4925C97.4973 27.6614 96.365 27.1929 95.1834 27.1875H95.1291C93.9386 27.193 92.7986 27.6685 91.9572 28.5106L73.8322 46.6356C73.4109 47.0563 73.0766 47.5559 72.8484 48.1058C72.6201 48.6557 72.5024 49.2452 72.502 49.8405C72.5012 51.043 72.978 52.1965 73.8277 53.0473C74.6773 53.8982 75.8301 54.3767 77.0326 54.3775C78.235 54.3784 79.3885 53.9015 80.2394 53.0519L90.625 42.6572V67.9688C90.625 69.1705 91.1024 70.3231 91.9522 71.1728C92.8019 72.0226 93.9545 72.5 95.1562 72.5C96.358 72.5 97.5106 72.0226 98.3603 71.1728C99.2101 70.3231 99.6875 69.1705 99.6875 67.9688V42.6572L110.073 53.0519C110.924 53.9027 112.078 54.3807 113.281 54.3807C114.485 54.3807 115.639 53.9027 116.489 53.0519C117.34 52.201 117.818 51.047 117.818 49.8438C117.818 48.6405 117.34 47.4865 116.489 46.6356L98.3644 28.5106V28.5197ZM108.75 117.812V97.8116C111.913 96.9144 114.94 95.7272 117.812 94.25V117.812C117.812 122.62 115.903 127.23 112.504 130.629C109.105 134.028 104.495 135.938 99.6875 135.938H27.1875C22.3805 135.938 17.7703 134.028 14.3712 130.629C10.9721 127.23 9.0625 122.62 9.0625 117.812V63.4375C9.0625 58.6305 10.9721 54.0203 14.3712 50.6212C17.7703 47.2221 22.3805 45.3125 27.1875 45.3125H45.5119C45.2402 48.3272 45.2402 51.3603 45.5119 54.375H27.1875C24.784 54.375 22.4789 55.3298 20.7793 57.0293C19.0798 58.7289 18.125 61.034 18.125 63.4375V70.1437L63.4375 94.54L68.3675 91.8847C71.485 93.8784 74.8381 95.5278 78.3725 96.7966L65.5944 103.684C64.9331 104.041 64.1935 104.228 63.442 104.228C62.6906 104.228 61.9509 104.041 61.2897 103.684L18.125 80.4297V117.812C18.125 120.216 19.0798 122.521 20.7793 124.221C22.4789 125.92 24.784 126.875 27.1875 126.875H99.6875C102.091 126.875 104.396 125.92 106.096 124.221C107.795 122.521 108.75 120.216 108.75 117.812Z" fill="#004b66"/>
</svg>
