<svg width="80" height="90" viewBox="0 0 80 90" fill="none" xmlns="http://www.w3.org/2000/svg">
<g clip-path="url(#clip0_18_100)">
<path d="M79.9911 26.4344C79.9904 24.9228 79.667 23.5869 79.0131 22.4403C78.3713 21.3128 77.4092 20.3678 76.1194 19.6206C65.4707 13.4797 54.8111 7.3575 44.1659 1.21031C41.2959 -0.446873 38.5134 -0.386561 35.6644 1.29469C31.4259 3.79469 10.2051 15.9541 3.88121 19.6172C1.27716 21.125 0.00981387 23.4325 0.00918895 26.4313C0.00512695 38.7816 0.00918895 51.1313 0.00512695 63.4816C0.00512695 64.9597 0.315401 66.27 0.940323 67.3994C1.58274 68.5609 2.55793 69.5319 3.87777 70.2959C10.202 73.9591 31.4256 86.1178 35.6632 88.6181C38.5131 90.3 41.2959 90.3603 44.1668 88.7025C54.8123 82.555 65.4723 76.4331 76.1228 70.2922C77.4426 69.5284 78.4178 68.5569 79.0602 67.3963C79.6842 66.2669 79.9951 64.9569 79.9951 63.4778C79.9951 63.4778 79.9951 38.7847 79.9911 26.4344Z" fill="#75A4D7"/>
<path d="M40.1225 44.8362L0.939941 67.3994C1.58267 68.5609 2.55786 69.5319 3.8777 70.2959C10.2019 73.9591 31.4255 86.1178 35.6631 88.6181C38.5131 90.3 41.2958 90.3603 44.1667 88.7025C54.8123 82.555 65.4722 76.4331 76.1227 70.2922C77.4426 69.5284 78.4177 68.5569 79.0602 67.3962L40.1225 44.8362Z" fill="#004F99"/>
<path d="M28.5171 51.5197C30.7971 55.5003 35.0831 58.1853 40 58.1853C44.9472 58.1853 49.2576 55.4666 51.5261 51.4428L40.1225 44.8362L28.5171 51.5197Z" fill="#1C4B7D"/>
<path d="M79.9909 26.4344C79.9903 24.9228 79.6669 23.5869 79.0129 22.4403L40.1224 44.8362L79.0601 67.3963C79.684 66.2669 79.9943 64.9569 79.9949 63.4778C79.9949 63.4778 79.9949 38.7847 79.9909 26.4344Z" fill="#0165B2"/>
<path d="M77.8499 46.4488H74.8072V49.4925H71.7638V46.4488H68.7214V43.4063H71.7638V40.3631H74.8072V43.4063H77.8499V46.4491V46.4488ZM40 18.3897C49.7284 18.3897 58.2345 23.621 62.8627 31.4238L63.0014 31.661L51.4401 38.3194C49.1488 34.3791 44.8853 31.7275 40 31.7275C32.6946 31.7275 26.7725 37.6503 26.7725 44.9563C26.7701 47.259 27.3716 49.5221 28.517 51.5197C30.797 55.5003 35.0831 58.1853 40 58.1853C44.8928 58.1853 49.1629 55.526 51.4507 51.575L51.526 51.4428L63.0705 58.1322C58.493 66.1313 49.8759 71.5231 40 71.5231C30.1421 71.5231 21.5385 66.1528 16.9547 58.1772C14.7169 54.2838 13.4364 49.7697 13.4364 44.9563C13.4364 30.2844 25.329 18.3897 40 18.3897ZM63.7048 40.3628V43.406H66.7472V46.4488H63.7048V49.4925H60.6621V46.4488H57.6193V43.4063H60.6621V40.3631H63.7048V40.3628Z" fill="white"/>
</g>
<defs>
<clipPath id="clip0_18_100">
<rect width="80" height="90" fill="white"/>
</clipPath>
</defs>
</svg>
