<svg width="90" height="90" viewBox="0 0 90 90" fill="none" xmlns="http://www.w3.org/2000/svg">
<path d="M16.5993 76.5028L10.2825 5.625H79.7175L73.3922 76.4916L44.9578 84.375L16.5993 76.5028Z" fill="#1AA3FF"/>
<path d="M45 78.3506L67.9781 71.9803L73.3837 11.4216H45V78.3506Z" fill="#4DB8FF"/>
<path d="M45 37.0997H56.5031L57.2962 28.1981H45V19.5047H66.7969L66.5888 21.8363L64.4541 45.7931H45V37.0997Z" fill="white"/>
<path d="M45.0535 59.6756L45.0141 59.6869L35.3335 57.0712L34.7147 50.1384H25.9875L27.2054 63.7875L45.0113 68.7319L45.0535 68.7206V59.6756Z" fill="#EBEBEB"/>
<path d="M55.7634 45.4247L54.7172 57.0656L45.0225 59.6812V68.7262L62.8425 63.7875L62.9747 62.3194L64.485 45.4247H55.7634Z" fill="white"/>
<path d="M45.031 19.5047V28.1981H24.0328L23.8585 26.2435L23.4619 21.8363L23.2538 19.5047H45.031ZM45 37.0997V45.7931H35.4403L35.266 43.8385L34.8722 39.4313L34.6641 37.0997H45Z" fill="#EBEBEB"/>
</svg>
