<svg width="90" height="90" viewBox="0 0 90 90" fill="none" xmlns="http://www.w3.org/2000/svg">
<path d="M16.5994 76.5028L10.2797 5.625H79.7203L73.3922 76.4916L44.9578 84.375L16.5994 76.5028Z" fill="#E44F26"/>
<path d="M45 78.3506L67.9781 71.9803L73.3837 11.4216H45V78.3506Z" fill="#F1662A"/>
<path d="M45 37.7072H33.4969L32.7038 28.8056H45V20.1122H23.2031L23.4113 22.4466L25.5459 46.4006H45V37.7072ZM45 60.2831L44.9606 60.2944L35.28 57.6816L34.6613 50.7487H25.9341L27.1519 64.395L44.9606 69.3394L45 69.3281V60.2831Z" fill="#EBEBEB"/>
<path d="M44.9691 37.7072V46.4006H55.6734L54.6666 57.6759L44.9691 60.2916V69.3366L62.7919 64.395L62.9212 62.9269L64.9631 40.0416L65.1769 37.7072H44.9691ZM44.9691 20.1122V28.8056H65.9672L66.1416 26.8537L66.5381 22.4466L66.7462 20.1122H44.9691Z" fill="white"/>
</svg>
