<svg width="145" height="145" viewBox="0 0 145 145" fill="none" xmlns="http://www.w3.org/2000/svg">
<path d="M38.6667 92.1556V42.6944H98.2778L104.642 36.25H32.2222V92.1556H38.6667Z" fill="#004b66"/>
<path d="M24.1667 28.1945H120.833V92.6389H128.889V26.1806C128.889 24.5782 128.252 23.0415 127.119 21.9085C125.986 20.7754 124.45 20.1389 122.847 20.1389H22.1528C20.5504 20.1389 19.0137 20.7754 17.8807 21.9085C16.7476 23.0415 16.1111 24.5782 16.1111 26.1806V92.6389H24.1667V28.1945Z" fill="#004b66"/>
<path d="M4.02778 100.694V114.389C4.02778 117.166 5.1311 119.83 7.09502 121.794C9.05894 123.758 11.7226 124.861 14.5 124.861H130.258C133.036 124.861 135.699 123.758 137.663 121.794C139.627 119.83 140.731 117.166 140.731 114.389V100.694H4.02778ZM132.917 114.389C132.917 115.03 132.662 115.645 132.209 116.098C131.756 116.551 131.141 116.806 130.5 116.806H14.3389C13.6979 116.806 13.0833 116.551 12.63 116.098C12.1768 115.645 11.9222 115.03 11.9222 114.389V106.857H51.9986C52.5022 108.045 53.3427 109.06 54.4164 109.775C55.4901 110.491 56.7499 110.877 58.0403 110.885H86.7583C88.0487 110.877 89.3085 110.491 90.3822 109.775C91.4559 109.06 92.2964 108.045 92.8 106.857H132.917V114.389Z" fill="#004b66"/>
</svg>
