<svg width="88" height="88" viewBox="0 0 88 88" fill="none" xmlns="http://www.w3.org/2000/svg">
<path d="M23.5456 41.954C30.1126 44.2622 37.0405 45.3734 44.0001 45.2347C50.9597 45.3726 57.8877 44.2604 64.4546 41.9512C69.5806 39.952 71.3983 37.73 71.3983 36.4512V26.675C69.6062 27.8751 67.6835 28.8678 65.6673 29.634C58.7193 32.1219 51.3791 33.3349 44.0001 33.2145C36.6216 33.3326 29.2822 32.1216 22.3328 29.6395C20.3156 28.8733 18.3927 27.8786 16.6018 26.675V36.4375C16.6018 37.741 18.4251 39.952 23.5456 41.954ZM23.5456 60.3927C25.8655 61.2775 28.2578 61.9593 30.6956 62.4305C35.0792 63.2785 39.5352 63.6957 44.0001 63.6762C48.4648 63.6967 52.9208 63.2803 57.3046 62.4332C59.7423 61.962 62.1346 61.2802 64.4546 60.3955C69.5806 58.3962 71.3983 56.1742 71.3983 54.8955V45.573C69.9169 46.4644 68.3599 47.2236 66.7453 47.8417C59.4462 50.4261 51.7419 51.6771 44.0001 51.535C36.2574 51.6727 28.5531 50.417 21.2548 47.828C19.6409 47.2082 18.084 46.4491 16.6018 45.5592V54.89C16.6018 56.1715 18.4251 58.3852 23.5456 60.3927ZM44.0001 82.5C59.1251 82.5 71.3983 77.704 71.3983 71.7915V63.9897C70.0507 64.8021 68.6389 65.5029 67.1771 66.0852L66.7453 66.2585C59.4476 68.8505 51.7432 70.1089 44.0001 69.9737C36.2566 70.1128 28.5515 68.8543 21.2548 66.2585C21.1063 66.2035 20.9633 66.1402 20.8231 66.0852C19.3612 65.5029 17.9494 64.8021 16.6018 63.9897V71.7915C16.6018 77.704 28.8751 82.5 44.0001 82.5Z" fill="#FFA142"/>
<path d="M44.0001 26.917C59.1317 26.917 71.3983 22.1226 71.3983 16.2085C71.3983 10.2944 59.1317 5.5 44.0001 5.5C28.8684 5.5 16.6018 10.2944 16.6018 16.2085C16.6018 22.1226 28.8684 26.917 44.0001 26.917Z" fill="#FFA142"/>
</svg>
