<svg width="38" height="30" viewBox="0 0 38 30" fill="none" xmlns="http://www.w3.org/2000/svg">
<g clip-path="url(#clip0_22_150)">
<path d="M0.549316 13.6758C0.197754 14.0273 0 14.502 0 15V22.5C0 22.998 0.197754 23.4738 0.549316 23.8254C0.900879 24.177 1.37695 24.375 1.875 24.375H3.75V13.125H1.875C1.37695 13.125 0.901172 13.3242 0.549316 13.6758ZM27.1875 5.625H20.625V1.875C20.625 0.842578 19.7824 0 18.75 0C17.7176 0 16.875 0.842578 16.875 1.875V5.625H10.3125C7.72266 5.625 5.625 7.72266 5.625 10.3125V26.25C5.625 28.323 7.30195 30 9.375 30H28.125C30.198 30 31.875 28.323 31.875 26.25V10.3125C31.875 7.72266 29.7832 5.625 27.1875 5.625ZM15 24.375H11.25V22.5H15V24.375ZM13.125 17.3438C11.8301 17.3438 10.7812 16.2949 10.7812 15C10.7812 13.7051 11.8301 12.6562 13.125 12.6562C14.4199 12.6562 15.4688 13.7051 15.4688 15C15.4688 16.2949 14.4199 17.3438 13.125 17.3438ZM20.625 24.375H16.875V22.5H20.625V24.375ZM26.25 24.375H22.5V22.5H26.25V24.375ZM24.375 17.3438C23.0789 17.3438 22.0312 16.2961 22.0312 15C22.0312 13.7039 23.0801 12.6562 24.375 12.6562C25.6699 12.6562 26.7188 13.7051 26.7188 15C26.7188 16.2949 25.6699 17.3438 24.375 17.3438ZM36.9492 13.6758C36.5977 13.3242 36.123 13.125 35.625 13.125H33.75V24.375H35.625C36.123 24.375 36.5988 24.1772 36.9504 23.8257C37.302 23.4741 37.5 22.998 37.5 22.5V15C37.5 14.502 37.3008 14.0273 36.9492 13.6758Z" fill="#004370"/>
</g>
<defs>
<clipPath id="clip0_22_150">
<rect width="37.5" height="30" rx="8" fill="white"/>
</clipPath>
</defs>
</svg>
