<svg width="44" height="44" viewBox="0 0 44 44" fill="none" xmlns="http://www.w3.org/2000/svg">
<path d="M39.8887 6.91627L31.9605 3.09927C31.5127 2.88339 31.0089 2.81215 30.5189 2.89543C30.0289 2.9787 29.5769 3.21236 29.2256 3.56402L3.27248 27.225C2.95759 27.5107 2.7691 27.9099 2.74847 28.3346C2.72784 28.7592 2.87677 29.1747 3.16248 29.4896C3.19685 29.5268 3.23123 29.5625 3.26835 29.5955L5.38723 31.5205C5.6641 31.7725 6.02049 31.9196 6.39451 31.9361C6.76852 31.9527 7.13652 31.8378 7.4346 31.6113L38.6952 7.90627C38.9313 7.7271 39.2128 7.61739 39.5079 7.58949C39.803 7.5616 40.1 7.61663 40.3655 7.74838C40.631 7.88014 40.8545 8.08339 41.0107 8.33526C41.167 8.58713 41.2499 8.87762 41.25 9.17402V9.0819C41.25 8.62938 41.1222 8.18607 40.8814 7.80296C40.6406 7.41985 40.2965 7.1125 39.8887 6.91627Z" fill="#0065A9"/>
<path d="M39.8887 37.0838L31.9605 40.9021C31.5126 41.1174 31.009 41.1883 30.5191 41.1051C30.0292 41.0218 29.5772 40.7885 29.2256 40.4374L3.27248 16.775C2.95759 16.4893 2.7691 16.0902 2.74847 15.6655C2.72784 15.2408 2.87677 14.8253 3.16248 14.5104C3.19685 14.4733 3.23123 14.4375 3.26835 14.4045L5.38723 12.4795C5.66438 12.2265 6.02159 12.0788 6.39652 12.0622C6.77146 12.0456 7.14031 12.1612 7.43873 12.3888L38.6952 36.0938C38.9313 36.2729 39.2128 36.3826 39.5079 36.4105C39.803 36.4384 40.1 36.3834 40.3655 36.2517C40.631 36.1199 40.8545 35.9166 41.0107 35.6648C41.167 35.4129 41.2499 35.1224 41.25 34.826V34.925C41.2485 35.3763 41.1201 35.8181 40.8793 36.1999C40.6386 36.5816 40.2953 36.8879 39.8887 37.0838Z" fill="#007ACC"/>
<path d="M31.9605 40.9021C31.5126 41.1174 31.0089 41.1883 30.5191 41.1051C30.0292 41.0218 29.5772 40.7885 29.2256 40.4374C29.423 40.6323 29.6736 40.7645 29.9459 40.8176C30.2182 40.8707 30.5002 40.8422 30.7564 40.7358C31.0125 40.6294 31.2316 40.4497 31.3861 40.2192C31.5407 39.9888 31.6237 39.7179 31.625 39.4405V4.55951C31.6252 4.28078 31.5427 4.00826 31.3879 3.77645C31.2331 3.54465 31.013 3.36401 30.7555 3.2574C30.498 3.15079 30.2146 3.12302 29.9412 3.17761C29.6679 3.23219 29.4169 3.36667 29.2201 3.56401C29.5714 3.21248 30.0233 2.9788 30.5133 2.8953C31.0032 2.81179 31.507 2.88258 31.955 3.09788L39.8818 6.90938C40.2909 7.10463 40.6364 7.41156 40.8785 7.79475C41.1205 8.17794 41.2493 8.62176 41.25 9.07501V34.925C41.2501 35.3779 41.1222 35.8216 40.8811 36.205C40.6401 36.5884 40.2956 36.8959 39.8873 37.092L31.9605 40.9021Z" fill="#1F9CF0"/>
</svg>
