<?xml version="1.0" standalone="no"?>
<!DOCTYPE svg PUBLIC "-//W3C//DTD SVG 20010904//EN"
 "http://www.w3.org/TR/2001/REC-SVG-20010904/DTD/svg10.dtd">
<svg version="1.0" xmlns="http://www.w3.org/2000/svg"
 width="500.000000pt" height="500.000000pt" viewBox="0 0 500.000000 500.000000"
 preserveAspectRatio="xMidYMid meet">
<metadata>
Created by potrace 1.14, written by Peter Selinger 2001-2017
</metadata>
<g transform="translate(0.000000,500.000000) scale(0.100000,-0.100000)"
fill="#000000" stroke="none">
<path d="M2260 4988 c-752 -78 -1423 -478 -1835 -1093 -267 -400 -405 -825
-422 -1300 -15 -430 68 -818 257 -1200 303 -615 826 -1065 1486 -1278 255 -83
440 -110 744 -111 261 -1 415 17 637 75 485 125 958 422 1279 803 568 675 739
1573 459 2415 -88 264 -262 576 -438 789 -90 107 -262 277 -362 357 -254 204
-582 373 -903 465 -262 75 -628 107 -902 78z m406 -442 c56 -3 159 -17 229
-31 547 -111 998 -414 1311 -881 307 -460 413 -1078 278 -1624 -72 -290 -214
-573 -402 -803 -134 -163 -371 -367 -540 -466 -232 -135 -497 -228 -750 -265
-130 -19 -422 -22 -547 -6 -334 43 -667 172 -933 362 -127 91 -312 263 -403
374 -142 173 -277 413 -347 614 -40 115 -78 273 -97 401 -20 142 -20 438 1
578 112 763 646 1402 1375 1645 74 25 193 57 264 71 120 25 340 44 425 38 19
-1 81 -4 136 -7z"/>
<path d="M1520 3167 c-382 -363 -695 -664 -695 -667 0 -7 1384 -1313 1397
-1318 4 -2 8 140 8 315 l0 318 -365 338 c-201 186 -365 342 -365 347 0 5 164
163 365 351 l365 341 0 319 c0 176 -3 319 -7 318 -5 0 -321 -298 -703 -662z"/>
<path d="M2760 3513 l0 -319 365 -343 c201 -188 365 -346 365 -351 0 -5 -164
-161 -365 -347 l-365 -338 0 -318 c0 -176 4 -317 9 -315 14 5 1396 1310 1396
1318 0 8 -1382 1323 -1396 1328 -5 2 -9 -140 -9 -315z"/>
</g>
</svg>
