<svg width="250" height="250" viewBox="0 0 250 250" fill="none" xmlns="http://www.w3.org/2000/svg">
<rect width="250" height="250" fill="#7a6263"/>
<g clip-path="url(#clip0_2_64)">
<g clip-path="url(#clip1_2_64)">
<g clip-path="url(#clip2_2_64)">
<g clip-path="url(#clip3_2_64)">
<g clip-path="url(#clip4_2_64)">
<g clip-path="url(#clip5_2_64)">
<g clip-path="url(#clip6_2_64)">
<g clip-path="url(#clip7_2_64)">
<g clip-path="url(#clip8_2_64)">
<path d="M59.5473 191.935C55.5238 191.935 51.7777 191.504 48.3091 190.643C44.8404 189.782 41.6909 188.183 38.8606 185.845C36.0024 183.508 33.5328 180.087 31.4516 175.585C29.3704 171.106 27.7749 165.213 26.6649 157.906C25.555 150.573 25 141.555 25 130.852C25 118.18 25.8047 107.563 27.4142 98.9998C28.9958 90.4617 31.1741 83.5721 33.949 78.3311C36.7239 73.1148 39.8873 69.0918 43.4391 66.2621C46.9632 63.4325 50.6677 61.5256 54.5525 60.5413C58.4374 59.5571 62.2529 59.065 65.999 59.065C71.1325 59.065 75.1283 59.5817 77.9865 60.6151C80.8169 61.6732 82.787 62.9773 83.897 64.5274C85.0069 66.053 85.5619 67.6154 85.5619 69.2148C85.5619 70.9372 85.2844 72.5981 84.7294 74.1974C84.1745 75.7968 83.5501 77.1501 82.8564 78.2573C82.1627 77.7652 81.1637 77.1747 79.8595 76.4857C78.5276 75.8214 76.9598 75.2062 75.1561 74.6403C73.3524 74.099 71.41 73.8283 69.3288 73.8283C66.6927 73.8283 64.0982 74.222 61.5453 75.0094C58.9646 75.8214 56.5366 77.3592 54.2612 79.6229C51.958 81.9113 49.974 85.1469 48.3091 89.3298C46.6441 93.5128 45.2983 98.926 44.2716 105.569C43.2171 112.213 42.6899 120.394 42.6899 130.114C42.6899 139.464 43.2171 147.091 44.2716 152.997C45.2983 158.902 46.7135 163.479 48.5172 166.727C50.3208 169.999 52.4991 172.251 55.052 173.481C57.6327 174.711 60.4492 175.326 63.5016 175.326C67.5251 175.326 71.2712 174.711 74.7398 173.481C78.2085 172.251 80.8446 170.959 82.6483 169.605C83.342 170.836 83.9664 172.251 84.5213 173.85C85.0763 175.449 85.3538 177.049 85.3538 178.648C85.3538 180.986 84.2855 183.163 82.1488 185.181C79.9844 187.223 76.9598 188.859 73.0749 190.09C69.1901 191.32 64.6809 191.935 59.5473 191.935ZM183.585 191.566C181.087 191.566 179.145 190.606 177.758 188.687C176.37 186.792 175.26 184.246 174.428 181.047L163.814 139.525C163.259 136.572 162.593 132.82 161.816 128.268C161.067 123.716 160.345 118.98 159.651 114.058C158.958 109.137 158.333 104.524 157.778 100.218C157.223 95.9118 156.766 92.4055 156.405 89.6989C156.072 86.9923 155.905 85.639 155.905 85.639L150.91 71.4293C150.494 69.8299 150.564 68.7227 151.119 68.1075C151.674 67.4924 152.784 67.1848 154.448 67.1848H165.687L180.255 132.328C181.504 137.864 182.503 143.031 183.252 147.83C184.029 152.628 184.653 157.143 185.125 161.375C185.624 165.632 186.082 169.728 186.498 173.665H187.747C188.163 167.883 188.815 161.301 189.703 153.919C190.619 146.538 191.701 139.341 192.95 132.328L206.27 65.3394C206.547 63.8631 206.963 62.7558 207.518 62.0177C208.073 61.2795 209.114 60.9104 210.64 60.9104H225L197.737 190.643C195.794 190.766 194.157 190.926 192.825 191.123C191.521 191.295 190.203 191.418 188.871 191.492C187.567 191.541 185.805 191.566 183.585 191.566ZM124.48 191.381C122.399 191.381 120.623 190.299 119.152 188.133C117.709 185.993 116.641 183.262 115.947 179.94C114.837 174.773 113.408 168.437 111.66 160.932C109.939 153.427 108.136 145.369 106.249 136.757C104.39 128.145 102.586 119.619 100.838 111.18C99.1172 102.764 97.4939 95.0752 95.9677 88.1119C94.4415 81.1731 93.2622 75.6368 92.4298 71.5031C91.5973 67.394 91.1811 65.3394 91.1811 65.3394C90.7648 63.7401 90.7648 62.5959 91.1811 61.9069C91.5973 61.2426 92.7766 60.9104 94.719 60.9104H108.663L123.647 132.328C124.757 137.864 125.687 143.056 126.436 147.903C127.213 152.775 127.879 157.327 128.434 161.559C128.989 165.816 129.475 169.913 129.891 173.85H131.139C131.556 166.468 132.208 159.357 133.096 152.517C134.011 145.701 135.163 138.972 136.55 132.328L149.246 71.6138C149.523 70.0145 149.898 68.8826 150.369 68.2183C150.869 67.5293 151.951 67.1848 153.616 67.1848H160.9C163.12 67.1848 164.327 67.5539 164.521 68.2921C164.743 69.0303 164.716 70.076 164.438 71.4293L158.819 85.8235C158.819 85.8235 158.639 87.1768 158.278 89.8835C157.945 92.5901 157.501 96.0595 156.946 100.292C156.391 104.548 155.794 109.1 155.156 113.948C154.546 118.82 153.894 123.532 153.2 128.084C152.506 132.636 151.882 136.388 151.327 139.341L139.88 190.643C137.383 190.889 135.052 191.074 132.888 191.197C130.751 191.32 127.948 191.381 124.48 191.381Z" fill="white"/>
</g>
</g>
</g>
</g>
</g>
</g>
</g>
<path d="M25 53.8464V18.8698H225V53.8464H211.487V30.8522H38.5132V53.8464H25ZM25 197.154V232.13H225V197.154H211.487V220.148H38.5132V197.154H25Z" fill="white"/>
</g>
</g>
<defs>
<clipPath id="clip0_2_64">
<rect width="200" height="215" fill="white" transform="translate(25 18)"/>
</clipPath>
<clipPath id="clip1_2_64">
<rect width="200" height="215" fill="white" transform="translate(25 18)"/>
</clipPath>
<clipPath id="clip2_2_64">
<rect width="200" height="132.87" fill="white" transform="translate(25 59.065)"/>
</clipPath>
<clipPath id="clip3_2_64">
<rect width="200" height="132.87" fill="white" transform="translate(25 59.065)"/>
</clipPath>
<clipPath id="clip4_2_64">
<rect width="200" height="132.87" fill="white" transform="translate(25 59.065)"/>
</clipPath>
<clipPath id="clip5_2_64">
<rect width="200" height="132.87" fill="white" transform="translate(25 59.065)"/>
</clipPath>
<clipPath id="clip6_2_64">
<rect width="200" height="132.87" fill="white" transform="translate(25 59.065)"/>
</clipPath>
<clipPath id="clip7_2_64">
<rect width="200" height="132.87" fill="white" transform="translate(25 59.065)"/>
</clipPath>
<clipPath id="clip8_2_64">
<rect width="200" height="132.87" fill="white" transform="translate(25 59.065)"/>
</clipPath>
</defs>
</svg>
