<svg width="75" height="75" viewBox="0 0 75 75" fill="none" xmlns="http://www.w3.org/2000/svg">
<path d="M62.5 65.625H12.5C10.8424 65.625 9.25269 64.9665 8.08058 63.7944C6.90848 62.6223 6.25 61.0326 6.25 59.375V15.625C6.25 13.9674 6.90848 12.3777 8.08058 11.2056C9.25269 10.0335 10.8424 9.375 12.5 9.375H62.5C64.1576 9.375 65.7473 10.0335 66.9194 11.2056C68.0915 12.3777 68.75 13.9674 68.75 15.625V59.375C68.75 61.0326 68.0915 62.6223 66.9194 63.7944C65.7473 64.9665 64.1576 65.625 62.5 65.625ZM12.5 21.875V59.375H62.5V21.875H12.5ZM45.9594 52.2094L41.5438 47.7937L48.7063 40.625L41.5406 33.4594L45.9594 29.0406L57.5438 40.625L45.9625 52.2062L45.9594 52.2094V52.2094ZM29.0406 52.2094L17.4563 40.625L29.0406 29.0406L33.4594 33.4594L26.2938 40.625L33.4563 47.7906L29.0406 52.2062V52.2094V52.2094Z" fill="white"/>
</svg>
