<svg width="75" height="75" viewBox="0 0 75 75" fill="none" xmlns="http://www.w3.org/2000/svg">
<path d="M43.5781 40.625C42.8011 40.6448 42.0614 40.9623 41.5119 41.5119C40.9623 42.0614 40.6448 42.8011 40.625 43.5781V63.3594C40.6124 63.7653 40.6816 64.1695 40.8283 64.5482C40.975 64.9269 41.1963 65.2722 41.479 65.5637C41.7617 65.8551 42.1002 66.0868 42.4742 66.245C42.8482 66.4032 43.2502 66.4846 43.6563 66.4844H63.3594C64.1882 66.4844 64.983 66.1551 65.5691 65.5691C66.1551 64.983 66.4844 64.1882 66.4844 63.3594V43.5781C66.4846 43.172 66.4032 42.7701 66.245 42.396C66.0868 42.022 65.8551 41.6836 65.5637 41.4009C65.2722 41.1181 64.9269 40.8968 64.5482 40.7501C64.1695 40.6034 63.7653 40.5343 63.3594 40.5469L43.5781 40.625ZM11.6406 8.59375C10.8254 8.61414 10.0505 8.95235 9.48125 9.53621C8.91199 10.1201 8.5935 10.9033 8.59375 11.7188V31.4219C8.59356 31.828 8.67496 32.2299 8.83312 32.604C8.99128 32.978 9.22299 33.3164 9.51447 33.5991C9.80595 33.8819 10.1513 34.1032 10.5299 34.2499C10.9086 34.3966 11.3129 34.4657 11.7188 34.4531H31.4219C32.2258 34.4531 32.9968 34.1338 33.5653 33.5653C34.1338 32.9968 34.4531 32.2258 34.4531 31.4219V11.6406C34.4552 11.2412 34.3783 10.8454 34.2269 10.4758C34.0755 10.1062 33.8525 9.77023 33.5708 9.4871C33.2892 9.20397 32.9543 8.97929 32.5855 8.82598C32.2167 8.67266 31.8213 8.59374 31.4219 8.59375H11.6406Z" stroke="white" stroke-linecap="round" stroke-linejoin="round"/>
<path d="M61.8438 8.59375H45.1094C42.5896 8.59375 40.5469 10.6365 40.5469 13.1562V29.8906C40.5469 32.4104 42.5896 34.4531 45.1094 34.4531H61.8438C64.3635 34.4531 66.4062 32.4104 66.4062 29.8906V13.1562C66.4062 10.6365 64.3635 8.59375 61.8438 8.59375Z" stroke="white" stroke-linecap="round" stroke-linejoin="round"/>
<path d="M31.4062 40.5469H11.6406C9.95788 40.5469 8.59375 41.911 8.59375 43.5937V63.3594C8.59375 65.0421 9.95788 66.4062 11.6406 66.4062H31.4062C33.089 66.4062 34.4531 65.0421 34.4531 63.3594V43.5937C34.4531 41.911 33.089 40.5469 31.4062 40.5469Z" stroke="white" stroke-linecap="round" stroke-linejoin="round"/>
<path d="M12.4375 53.4688H19.1406M45.1094 48.9063H61.8438H45.1094ZM45.1094 58.0313H61.8438H45.1094ZM12.5938 22.2188H15.5781L18.0313 28.8906L21.3594 14.1719H30.4531L12.5938 22.2188ZM45.7656 14.1719H61.1875H45.7656ZM47.2813 28.8906C50.6406 23.0156 50.1563 19.9063 50.1563 14.1719L47.2813 28.8906ZM57.0156 14.1719V28.8906V14.1719ZM23.9063 60.1719H30.6094H23.9063ZM23.9063 48.5938L27.2656 46.7656L23.9063 48.5938ZM27.2656 46.7656V60.1719V46.7656Z" stroke="white" stroke-linecap="round" stroke-linejoin="round"/>
</svg>
