<svg width="24" height="19" viewBox="0 0 24 19" fill="none" xmlns="http://www.w3.org/2000/svg">
<path d="M11.2295 4.9291L3.84544 11.3699V18.3214C3.84544 18.5013 3.91295 18.674 4.03313 18.8012C4.1533 18.9285 4.31629 19 4.48625 19L8.97429 18.9877C9.14369 18.9868 9.30586 18.9149 9.42534 18.7877C9.54482 18.6606 9.6119 18.4885 9.6119 18.3091V14.2495C9.6119 14.0695 9.67941 13.8969 9.79958 13.7696C9.91976 13.6423 10.0827 13.5708 10.2527 13.5708H12.8159C12.9859 13.5708 13.1489 13.6423 13.269 13.7696C13.3892 13.8969 13.4567 14.0695 13.4567 14.2495V18.3061C13.4565 18.3954 13.4729 18.4839 13.5049 18.5664C13.537 18.649 13.5842 18.7241 13.6437 18.7873C13.7032 18.8506 13.774 18.9008 13.8519 18.935C13.9297 18.9692 14.0132 18.9869 14.0975 18.9869L18.584 19C18.7539 19 18.9169 18.9285 19.0371 18.8012C19.1573 18.674 19.2248 18.5013 19.2248 18.3214V11.3652L11.8423 4.9291C11.7555 4.85501 11.6474 4.81461 11.5359 4.81461C11.4244 4.81461 11.3163 4.85501 11.2295 4.9291ZM22.8934 9.3068L19.5452 6.38395V0.508985C19.5452 0.373994 19.4946 0.244532 19.4044 0.149078C19.3143 0.0536252 19.1921 0 19.0646 0H16.8218C16.6943 0 16.5721 0.0536252 16.4819 0.149078C16.3918 0.244532 16.3412 0.373994 16.3412 0.508985V3.58877L12.7555 0.464449C12.4113 0.164563 11.9796 0.000599477 11.5339 0.000599477C11.0883 0.000599477 10.6565 0.164563 10.3124 0.464449L0.174419 9.3068C0.125753 9.3494 0.0854891 9.40173 0.0559287 9.46082C0.0263683 9.5199 0.00809049 9.58458 0.00213955 9.65115C-0.00381138 9.71772 0.00268124 9.78487 0.0212464 9.84878C0.0398116 9.91269 0.0700855 9.9721 0.110338 10.0236L1.13162 11.3385C1.17177 11.3902 1.22114 11.433 1.27693 11.4645C1.33271 11.4959 1.3938 11.5154 1.45671 11.5218C1.51962 11.5283 1.5831 11.5215 1.64353 11.5019C1.70396 11.4823 1.76015 11.4503 1.80888 11.4076L11.2295 3.19007C11.3163 3.11598 11.4244 3.07557 11.5359 3.07557C11.6474 3.07557 11.7555 3.11598 11.8423 3.19007L21.2634 11.4076C21.312 11.4503 21.3681 11.4823 21.4284 11.502C21.4888 11.5216 21.5522 11.5285 21.6151 11.5222C21.6779 11.5159 21.739 11.4966 21.7948 11.4653C21.8506 11.434 21.9 11.3913 21.9402 11.3398L22.9615 10.0249C23.0017 9.97308 23.0319 9.91336 23.0502 9.84917C23.0685 9.78498 23.0747 9.71759 23.0684 9.65086C23.0621 9.58412 23.0434 9.51938 23.0133 9.46033C22.9833 9.40129 22.9425 9.34911 22.8934 9.3068Z" fill="white"/>
</svg>
