<svg width="21" height="19" viewBox="0 0 21 19" fill="none" xmlns="http://www.w3.org/2000/svg">
<path d="M12.9076 12.8929C12.9076 13.2678 12.6188 13.5714 12.2622 13.5714H8.38995C8.03337 13.5714 7.74457 13.2678 7.74457 12.8929V10.8571H0V16.9643C0 18.05 0.903533 19 1.93614 19H18.716C19.7486 19 20.6522 18.05 20.6522 16.9643V10.8571H12.9076V12.8929ZM18.716 4.07143H15.4891V2.03571C15.4891 0.95 14.5856 0 13.553 0H7.09918C6.06658 0 5.16304 0.95 5.16304 2.03571V4.07143H1.93614C0.903533 4.07143 0 5.02143 0 6.10714V9.5H20.6522V6.10714C20.6522 5.02143 19.7486 4.07143 18.716 4.07143ZM12.9076 4.07143H7.74457V2.71429H12.9076V4.07143Z" fill="white"/>
</svg>
