<svg width="19" height="20" viewBox="0 0 19 20" fill="none" xmlns="http://www.w3.org/2000/svg">
<path d="M18.5963 15.4175L14.2511 10.855C13.3939 9.95497 12.1137 9.77964 11.0821 10.3134L7.12646 6.16V3.74042L2.37672 0L0.00185534 2.49361L3.56416 7.48084H5.86852L9.82416 11.6343C9.3195 12.7174 9.48277 14.0616 10.34 14.9617L14.6852 19.5242C15.227 20.0931 16.1027 20.0931 16.6408 19.5242L18.5963 17.4709C19.1344 16.902 19.1344 15.9825 18.5963 15.4175ZM12.3103 8.7666C13.3605 8.7666 14.3475 9.19519 15.0897 9.97445L15.8096 10.7303C16.3959 10.4615 16.9525 10.0874 17.4349 9.58092C18.8115 8.13541 19.2791 6.10156 18.8412 4.25473C18.7596 3.90406 18.3403 3.78328 18.0954 4.04043L15.3346 6.93926L12.815 6.49898L12.3957 3.85341L15.1565 0.954586C15.4014 0.697432 15.2826 0.257154 14.945 0.16754C13.1861 -0.288324 11.2491 0.202606 9.87611 1.64423C8.81855 2.75466 8.32131 4.21966 8.34729 5.68076L11.3938 8.8796C11.6944 8.80557 12.0061 8.7666 12.3103 8.7666ZM8.4549 11.9615L6.35092 9.75236L0.695762 15.6942C-0.231921 16.6682 -0.231921 18.2462 0.695762 19.2203C1.62344 20.1944 3.12629 20.1944 4.05397 19.2203L8.64044 14.4045C8.35842 13.6291 8.27307 12.7837 8.4549 11.9615ZM2.37672 18.3904C1.88691 18.3904 1.48615 17.9696 1.48615 17.4553C1.48615 16.9371 1.8832 16.5202 2.37672 16.5202C2.87025 16.5202 3.2673 16.9371 3.2673 17.4553C3.2673 17.9696 2.87025 18.3904 2.37672 18.3904Z" fill="white"/>
</svg>
