<svg width="17" height="20" viewBox="0 0 17 20" fill="none" xmlns="http://www.w3.org/2000/svg">
<path d="M15.8892 6.25C16.1297 6.25 16.3265 6.03906 16.3265 5.78125V4.21875C16.3265 3.96094 16.1297 3.75 15.8892 3.75H15.1603V1.875C15.1603 0.839844 14.3768 0 13.4111 0H1.74927C0.783528 0 0 0.839844 0 1.875V18.125C0 19.1602 0.783528 20 1.74927 20H13.4111C14.3768 20 15.1603 19.1602 15.1603 18.125V16.25H15.8892C16.1297 16.25 16.3265 16.0391 16.3265 15.7812V14.2188C16.3265 13.9609 16.1297 13.75 15.8892 13.75H15.1603V11.25H15.8892C16.1297 11.25 16.3265 11.0391 16.3265 10.7812V9.21875C16.3265 8.96094 16.1297 8.75 15.8892 8.75H15.1603V6.25H15.8892ZM7.58017 5C8.86662 5 9.91254 6.12109 9.91254 7.5C9.91254 8.87891 8.86662 10 7.58017 10C6.29373 10 5.24781 8.87891 5.24781 7.5C5.24781 6.12109 6.29373 5 7.58017 5ZM11.6618 14.25C11.6618 14.6641 11.2974 15 10.8455 15H4.31487C3.86297 15 3.49854 14.6641 3.49854 14.25V13.5C3.49854 12.2578 4.59548 11.25 5.94752 11.25H6.12974C6.57799 11.4492 7.06633 11.5625 7.58017 11.5625C8.09402 11.5625 8.58601 11.4492 9.03061 11.25H9.21283C10.5649 11.25 11.6618 12.2578 11.6618 13.5V14.25Z" fill="white"/>
</svg>
