<svg width="75" height="75" viewBox="0 0 75 75" fill="none" xmlns="http://www.w3.org/2000/svg">
<path fill-rule="evenodd" clip-rule="evenodd" d="M14.0625 9.375C12.8193 9.375 11.627 9.86886 10.7479 10.7479C9.86886 11.627 9.375 12.8193 9.375 14.0625V60.9375C9.375 62.1807 9.86886 63.373 10.7479 64.2521C11.627 65.1311 12.8193 65.625 14.0625 65.625H60.9375C62.1807 65.625 63.373 65.1311 64.2521 64.2521C65.1311 63.373 65.625 62.1807 65.625 60.9375V14.0625C65.625 12.8193 65.1311 11.627 64.2521 10.7479C63.373 9.86886 62.1807 9.375 60.9375 9.375H14.0625ZM56.25 17.1875C56.25 21.3891 53.5656 23.6844 50 26.0594C48.0359 24.7516 46.3391 23.4672 45.2109 21.875H51.5625C51.9769 21.875 52.3743 21.7104 52.6674 21.4174C52.9604 21.1243 53.125 20.7269 53.125 20.3125C53.125 19.8981 52.9604 19.5007 52.6674 19.2076C52.3743 18.9146 51.9769 18.75 51.5625 18.75H43.8844C43.793 18.2342 43.7481 17.7113 43.75 17.1875H40.625C40.625 22.5172 43.8703 25.5953 47.1687 27.9141C45.8703 28.7859 44.5797 29.7313 43.5156 30.8141C41.8406 32.5156 40.625 34.6469 40.625 37.5C40.625 40.3531 41.8406 42.4844 43.5156 44.1875C44.5797 45.2688 45.8703 46.2141 47.1687 47.0859C43.8719 49.4047 40.625 52.4828 40.625 57.8125H43.75C43.75 53.6109 46.4344 51.3156 50 48.9406C51.9641 50.2484 53.6609 51.5328 54.7891 53.125H48.4375C48.0231 53.125 47.6257 53.2896 47.3326 53.5826C47.0396 53.8757 46.875 54.2731 46.875 54.6875C46.875 55.1019 47.0396 55.4993 47.3326 55.7924C47.6257 56.0854 48.0231 56.25 48.4375 56.25H56.1156C56.2031 56.7406 56.25 57.2609 56.25 57.8125H59.375C59.375 52.4828 56.1297 49.4047 52.8313 47.0859C54.1297 46.2141 55.4203 45.2687 56.4844 44.1859C58.1594 42.4844 59.375 40.3531 59.375 37.5C59.375 34.6469 58.1594 32.5156 56.4844 30.8125C55.4203 29.7312 54.1297 28.7859 52.8313 27.9141C56.1281 25.5953 59.375 22.5172 59.375 17.1875H56.25ZM45.9375 32.8125C47.0375 31.7469 48.4313 30.8125 50 29.7922C51.5687 30.8125 52.9641 31.7469 54.0625 32.8125H45.9375V32.8125ZM43.95 35.9375C43.8188 36.4219 43.75 36.9406 43.75 37.5C43.75 38.0594 43.8188 38.5781 43.95 39.0625H56.05C56.1813 38.5781 56.25 38.0594 56.25 37.5C56.25 36.9406 56.1813 36.4219 56.05 35.9375H43.95ZM50 45.2078C48.4313 44.1875 47.0375 43.2531 45.9375 42.1875H54.0625C52.9641 43.2531 51.5687 44.1875 50 45.2078ZM20.3125 26.5625C20.3125 26.1481 20.4771 25.7507 20.7701 25.4576C21.0632 25.1646 21.4606 25 21.875 25H32.8125C33.2269 25 33.6243 25.1646 33.9174 25.4576C34.2104 25.7507 34.375 26.1481 34.375 26.5625V29.6875C34.375 30.1019 34.2104 30.4993 33.9174 30.7924C33.6243 31.0854 33.2269 31.25 32.8125 31.25H31.25V37.575L37.8609 48.2781C40.4328 52.4422 37.4391 57.8125 32.5437 57.8125H22.1437C17.25 57.8125 14.2531 52.4422 16.8266 48.2781L23.4375 37.575V31.25H21.875C21.4606 31.25 21.0632 31.0854 20.7701 30.7924C20.4771 30.4993 20.3125 30.1019 20.3125 29.6875V26.5625Z" fill="white"/>
</svg>
