<svg width="75" height="75" viewBox="0 0 75 75" fill="none" xmlns="http://www.w3.org/2000/svg">
<path d="M20.0001 47.6667V22.0833H50.8334L54.1251 18.75H16.6667V47.6667H20.0001V47.6667Z" fill="white"/>
<path d="M12.4999 14.5834H62.4999V47.9167H66.6666V13.5417C66.6666 12.7129 66.3373 11.9181 65.7513 11.332C65.1652 10.746 64.3704 10.4167 63.5416 10.4167H11.4583C10.6295 10.4167 9.83459 10.746 9.24854 11.332C8.66249 11.9181 8.33325 12.7129 8.33325 13.5417V47.9167H12.4999V14.5834Z" fill="white"/>
<path d="M2.08325 52.0833V59.1666C2.08325 60.6032 2.65393 61.9809 3.66976 62.9967C4.68558 64.0126 6.06333 64.5832 7.49992 64.5832H67.3749C68.8115 64.5832 70.1893 64.0126 71.2051 62.9967C72.2209 61.9809 72.7916 60.6032 72.7916 59.1666V52.0833H2.08325ZM68.7499 59.1666C68.7499 59.4981 68.6182 59.816 68.3838 60.0505C68.1494 60.2849 67.8314 60.4166 67.4999 60.4166H7.41659C7.08506 60.4166 6.76712 60.2849 6.5327 60.0505C6.29828 59.816 6.16659 59.4981 6.16659 59.1666V55.2708H26.8958C27.1562 55.8853 27.591 56.4101 28.1463 56.7803C28.7017 57.1506 29.3533 57.35 30.0208 57.3541H44.8749C45.5424 57.35 46.194 57.1506 46.7494 56.7803C47.3047 56.4101 47.7395 55.8853 47.9999 55.2708H68.7499V59.1666Z" fill="white"/>
</svg>
